<svg width="90" height="90" viewBox="0 0 90 90" fill="none" xmlns="http://www.w3.org/2000/svg">
<path d="M46.2877 11.7241H50.3628L47.1028 14.1339L48.3623 18.0041L45.1023 15.5943L41.8422 18.0041L43.1018 14.1339L39.7676 11.7241H43.8427L45.1023 8L46.2877 11.7241Z" fill="white"/>
<path d="M46.4343 73.7202H50.5094L47.2494 76.203L48.5089 80.0001L45.2489 77.6634L41.9888 80.0001L43.2484 76.203L39.9883 73.7202H44.0634L45.2489 69.9961L46.4343 73.7202Z" fill="white"/>
<path d="M62.069 69.6304H66.1441L62.8099 72.0401L64.0695 75.9103L60.8094 73.5736L57.5493 75.9103L58.883 72.0401L55.5488 69.6304H59.6239L60.8094 65.9062L62.069 69.6304Z" fill="white"/>
<path d="M62.069 15.814H66.1441L62.8099 18.2237L64.0695 22.0939L60.8094 19.6842L57.5493 22.0939L58.883 18.2237L55.5488 15.814H59.6239L60.8094 12.0898L62.069 15.814Z" fill="white"/>
<path d="M73.6276 27.2046H77.7027L74.3685 29.6143L75.7022 33.4845L72.4421 31.1478L69.1079 33.4845L70.4416 29.6143L67.1074 27.2046H71.1825L72.4421 23.4805L73.6276 27.2046Z" fill="white"/>
<path d="M73.6276 58.3862H77.7027L74.3685 60.796L75.7022 64.6662L72.4421 62.3295L69.1079 64.6662L70.4416 60.796L67.1074 58.3862H71.1825L72.4421 54.6621L73.6276 58.3862Z" fill="white"/>
<path d="M77.9256 42.5386H82.0007L78.7406 45.0214L80.0002 48.8185L76.7401 46.4818L73.48 48.8185L74.7396 45.0214L71.4795 42.5386H75.4805L76.7401 38.8145L77.9256 42.5386Z" fill="white"/>
<path d="M30.3562 15.814H34.4313L31.1712 18.2967L32.4308 22.0939L29.1707 19.7572L25.9107 22.0939L27.2443 18.2967L23.9102 15.814H27.9853L29.1707 12.0898L30.3562 15.814Z" fill="white"/>
<path d="M19.1696 27.2776H23.2447L19.9105 29.6874L21.2442 33.4845L17.9841 31.1478L14.6499 33.4845L15.9836 29.6874L12.6494 27.2776H16.7245L17.9841 23.4805L19.1696 27.2776Z" fill="white"/>
<path d="M14.9461 42.6128H19.0212L15.7611 45.0225L17.0207 48.8927L13.7606 46.483L10.5005 48.8927L11.7601 45.0225L8.5 42.6128H12.5751L13.7606 38.8887L14.9461 42.6128Z" fill="white"/>
<path d="M19.1696 58.4593H23.2447L19.9105 60.869L21.2442 64.7392L17.9841 62.3295L14.6499 64.7392L15.9836 60.869L12.6494 58.4593H16.7245L17.9841 54.6621L19.1696 58.4593Z" fill="white"/>
<path d="M30.5797 69.7034H34.6548L31.3207 72.1131L32.6543 75.9833L29.3202 73.5736L26.0601 75.9833L27.3937 72.1131L24.0596 69.7034H28.1347L29.3202 65.9062L30.5797 69.7034Z" fill="white"/>
<path d="M35.0181 50.6523C34.6226 51.126 34.0635 51.4946 33.3408 51.7583C32.6182 52.0171 31.8174 52.1465 30.9385 52.1465C30.0156 52.1465 29.2051 51.9463 28.5068 51.5459C27.8135 51.1406 27.2764 50.5547 26.8955 49.7881C26.5195 49.0215 26.3267 48.1206 26.3169 47.0854V46.3604C26.3169 45.2959 26.4951 44.3755 26.8516 43.5991C27.2129 42.8179 27.7305 42.2222 28.4043 41.812C29.083 41.397 29.8765 41.1895 30.7847 41.1895C32.0493 41.1895 33.0381 41.4922 33.751 42.0977C34.4639 42.6982 34.8862 43.5747 35.0181 44.7271H32.8794C32.7817 44.1167 32.5645 43.6699 32.2275 43.3867C31.8955 43.1035 31.4365 42.9619 30.8506 42.9619C30.1035 42.9619 29.5347 43.2427 29.144 43.8042C28.7534 44.3657 28.5557 45.2007 28.5508 46.3091V46.9902C28.5508 48.1084 28.7632 48.9531 29.188 49.5244C29.6128 50.0957 30.2354 50.3813 31.0557 50.3813C31.8809 50.3813 32.4692 50.2056 32.8208 49.854V48.0156H30.8213V46.397H35.0181V50.6523ZM36.8052 52V41.3359H40.0864C41.0239 41.3359 41.8613 41.5483 42.5986 41.9731C43.3408 42.3931 43.9194 42.9937 44.3345 43.7749C44.7495 44.5513 44.957 45.4351 44.957 46.4263V46.917C44.957 47.9082 44.752 48.7896 44.3418 49.561C43.9365 50.3325 43.3628 50.9307 42.6206 51.3555C41.8784 51.7803 41.041 51.9951 40.1084 52H36.8052ZM39.0024 43.1157V50.2349H40.0645C40.9238 50.2349 41.5806 49.9541 42.0347 49.3926C42.4888 48.8311 42.7207 48.0278 42.7305 46.9829V46.4189C42.7305 45.335 42.5059 44.5146 42.0566 43.958C41.6074 43.3965 40.9507 43.1157 40.0864 43.1157H39.0024ZM48.7583 48.2427V52H46.561V41.3359H50.7212C51.522 41.3359 52.2251 41.4824 52.8306 41.7754C53.4409 42.0684 53.9097 42.4858 54.2368 43.0278C54.564 43.5649 54.7275 44.1777 54.7275 44.8662C54.7275 45.9111 54.3687 46.7363 53.6509 47.3418C52.938 47.9424 51.9492 48.2427 50.6846 48.2427H48.7583ZM48.7583 46.4629H50.7212C51.3022 46.4629 51.7441 46.3262 52.0469 46.0527C52.3545 45.7793 52.5083 45.3887 52.5083 44.8809C52.5083 44.3584 52.3545 43.936 52.0469 43.6138C51.7393 43.2915 51.3145 43.1255 50.7725 43.1157H48.7583V46.4629ZM60.1914 48.0962H58.4409V52H56.2437V41.3359H60.2061C61.4658 41.3359 62.4375 41.6167 63.1211 42.1782C63.8047 42.7397 64.1465 43.5332 64.1465 44.5586C64.1465 45.2861 63.9878 45.894 63.6704 46.3823C63.3579 46.8657 62.8818 47.2515 62.2422 47.5396L64.5493 51.8975V52H62.1909L60.1914 48.0962ZM58.4409 46.3164H60.2134C60.7651 46.3164 61.1924 46.1772 61.4951 45.8989C61.7979 45.6157 61.9492 45.2275 61.9492 44.7344C61.9492 44.2314 61.8052 43.8359 61.5171 43.5479C61.2339 43.2598 60.7969 43.1157 60.2061 43.1157H58.4409V46.3164Z" fill="white"/>
</svg>
