<svg width="118" height="136" viewBox="0 0 118 136" fill="none" xmlns="http://www.w3.org/2000/svg">
<g opacity="0.1">
<path d="M72.6152 1.57937V5.97619C72.8914 5.97619 73.1152 6.20005 73.1152 6.47619V8.63492C73.1152 8.91106 72.8914 9.13492 72.6152 9.13492V13.5317C72.8914 13.5317 73.1152 13.7556 73.1152 14.0317V16.1905C73.1152 16.4666 72.8914 16.6905 72.6152 16.6905V21.0873C72.8914 21.0873 73.1152 21.3112 73.1152 21.5873V23.746C73.1152 24.0222 72.8914 24.246 72.6152 24.246V28.6429C72.8914 28.6429 73.1152 28.8667 73.1152 29.1429V31.3016C73.1152 31.5777 72.8914 31.8016 72.6152 31.8016V36.1984C72.8914 36.1984 73.1152 36.4223 73.1152 36.6984V38.8571C73.1152 39.1333 72.8914 39.3571 72.6152 39.3571V43.754C72.8914 43.754 73.1152 43.9778 73.1152 44.254V44.8333H73.6958C73.972 44.8333 74.1958 45.0572 74.1958 45.3333H78.5988C78.5988 45.0572 78.8226 44.8333 79.0988 44.8333H81.2599C81.5361 44.8333 81.7599 45.0572 81.7599 45.3333H86.1629C86.1629 45.0572 86.3867 44.8333 86.6629 44.8333H88.824C89.1002 44.8333 89.324 45.0572 89.324 45.3333H93.727C93.727 45.0572 93.9508 44.8333 94.227 44.8333H96.3881C96.6643 44.8333 96.8881 45.0572 96.8881 45.3333H101.291C101.291 45.0572 101.515 44.8333 101.791 44.8333H103.952C104.228 44.8333 104.452 45.0572 104.452 45.3333H108.855C108.855 45.0572 109.079 44.8333 109.355 44.8333H111.516C111.792 44.8333 112.016 45.0572 112.016 45.3333H116.419C116.419 45.0572 116.643 44.8333 116.919 44.8333H117.499L73.1152 0.499435V1.07937C73.1152 1.35551 72.8914 1.57937 72.6152 1.57937Z" fill="url(#paint0_linear)" stroke="url(#paint1_linear)" stroke-linecap="round" stroke-dasharray="2 5"/>
<path d="M71.078 0C71.078 0.276142 71.3019 0.5 71.578 0.5H72.4084L72.9824 1.07333C73.1778 1.26848 73.4944 1.26831 73.6895 1.07293L76.584 3.96411C76.3888 4.15948 76.389 4.47606 76.5844 4.67122L78.0252 6.11037C78.2205 6.30552 78.5371 6.30534 78.7323 6.10997L81.6267 9.00115C81.4316 9.19652 81.4317 9.5131 81.6271 9.70825L83.0679 11.1474C83.2633 11.3426 83.5798 11.3424 83.775 11.147L86.6694 14.0382C86.4743 14.2336 86.4745 14.5501 86.6698 14.7453L88.1106 16.1844C88.306 16.3796 88.6226 16.3794 88.8177 16.184L91.7122 19.0752C91.517 19.2706 91.5172 19.5872 91.7126 19.7823L93.1534 21.2215C93.3487 21.4166 93.6653 21.4165 93.8605 21.2211L96.7549 24.1123C96.5598 24.3076 96.5599 24.6242 96.7553 24.8194L98.1961 26.2585C98.3915 26.4537 98.7081 26.4535 98.9032 26.2581L101.798 29.1493C101.603 29.3447 101.603 29.6612 101.798 29.8564L103.239 31.2956C103.434 31.4907 103.751 31.4905 103.946 31.2952L106.84 34.1863C106.645 34.3817 106.645 34.6983 106.841 34.8934L108.282 36.3326C108.477 36.5277 108.794 36.5276 108.989 36.3322L111.883 39.2234C111.688 39.4187 111.688 39.7353 111.884 39.9305L113.324 41.3696C113.52 41.5648 113.836 41.5646 114.031 41.3692L116.926 44.2604C116.731 44.4558 116.731 44.7724 116.926 44.9675L117.5 45.5406V46.3297C117.5 46.6058 117.724 46.8297 118 46.8297V50.8114C117.724 50.8114 117.5 51.0352 117.5 51.3114V53.304C117.5 53.5802 117.724 53.804 118 53.804V57.7857C117.724 57.7857 117.5 58.0096 117.5 58.2857V60.2784C117.5 60.5545 117.724 60.7784 118 60.7784V64.7601C117.724 64.7601 117.5 64.9839 117.5 65.2601V67.2527C117.5 67.5289 117.724 67.7527 118 67.7527V71.7344C117.724 71.7344 117.5 71.9583 117.5 72.2344V74.2271C117.5 74.5032 117.724 74.7271 118 74.7271V78.7088C117.724 78.7088 117.5 78.9326 117.5 79.2088V81.2015C117.5 81.4776 117.724 81.7015 118 81.7015V85.6831C117.724 85.6831 117.5 85.907 117.5 86.1831V88.1758C117.5 88.452 117.724 88.6758 118 88.6758V92.6575C117.724 92.6575 117.5 92.8814 117.5 93.1575V95.1502C117.5 95.4263 117.724 95.6502 118 95.6502V99.6319C117.724 99.6319 117.5 99.8557 117.5 100.132V102.125C117.5 102.401 117.724 102.625 118 102.625V106.606C117.724 106.606 117.5 106.83 117.5 107.106V109.099C117.5 109.375 117.724 109.599 118 109.599V113.581C117.724 113.581 117.5 113.804 117.5 114.081V116.073C117.5 116.349 117.724 116.573 118 116.573V120.555C117.724 120.555 117.5 120.779 117.5 121.055V123.048C117.5 123.324 117.724 123.548 118 123.548V127.529C117.724 127.529 117.5 127.753 117.5 128.029V130.022C117.5 130.298 117.724 130.522 118 130.522V134.504C117.724 134.504 117.5 134.728 117.5 135.004V135.5H117.008C116.732 135.5 116.508 135.724 116.508 136H112.55C112.55 135.724 112.327 135.5 112.05 135.5H110.067C109.791 135.5 109.567 135.724 109.567 136H105.609C105.609 135.724 105.385 135.5 105.109 135.5H103.126C102.85 135.5 102.626 135.724 102.626 136H98.6681C98.6681 135.724 98.4442 135.5 98.1681 135.5H96.1849C95.9087 135.5 95.6849 135.724 95.6849 136H91.7269C91.7269 135.724 91.503 135.5 91.2269 135.5H89.2437C88.9676 135.5 88.7437 135.724 88.7437 136H84.7857C84.7857 135.724 84.5619 135.5 84.2857 135.5H82.3025C82.0264 135.5 81.8025 135.724 81.8025 136H77.8445C77.8445 135.724 77.6207 135.5 77.3445 135.5H75.3613C75.0852 135.5 74.8613 135.724 74.8613 136H70.9034C70.9034 135.724 70.6795 135.5 70.4034 135.5H68.4202C68.144 135.5 67.9202 135.724 67.9202 136H63.9622C63.9622 135.724 63.7383 135.5 63.4622 135.5H61.479C61.2028 135.5 60.979 135.724 60.979 136H57.021C57.021 135.724 56.7971 135.5 56.521 135.5H54.5378C54.2617 135.5 54.0378 135.724 54.0378 136H50.0798C50.0798 135.724 49.856 135.5 49.5798 135.5H47.5966C47.3205 135.5 47.0966 135.724 47.0966 136H43.1386C43.1386 135.724 42.9148 135.5 42.6386 135.5H40.6555C40.3793 135.5 40.1555 135.724 40.1555 136H36.1975C36.1975 135.724 35.9736 135.5 35.6975 135.5H33.7143C33.4381 135.5 33.2143 135.724 33.2143 136H29.2563C29.2563 135.724 29.0324 135.5 28.7563 135.5H26.7731C26.497 135.5 26.2731 135.724 26.2731 136H22.3151C22.3151 135.724 22.0913 135.5 21.8151 135.5H19.8319C19.5558 135.5 19.3319 135.724 19.3319 136H15.374C15.374 135.724 15.1501 135.5 14.874 135.5H12.8908C12.6146 135.5 12.3908 135.724 12.3908 136H8.43277C8.43277 135.724 8.20892 135.5 7.93277 135.5H5.94958C5.67344 135.5 5.44958 135.724 5.44958 136H1.4916C1.4916 135.724 1.26774 135.5 0.991597 135.5H0.5V134.977C0.5 134.701 0.276142 134.477 0 134.477V130.365C0.276142 130.365 0.5 130.141 0.5 129.865V127.82C0.5 127.543 0.276142 127.32 0 127.32V123.207C0.276142 123.207 0.5 122.983 0.5 122.707V120.662C0.5 120.386 0.276142 120.162 0 120.162V116.049C0.276142 116.049 0.5 115.825 0.5 115.549V113.504C0.5 113.228 0.276142 113.004 0 113.004V108.891C0.276142 108.891 0.5 108.667 0.5 108.391V106.346C0.5 106.07 0.276142 105.846 0 105.846V101.733C0.276142 101.733 0.5 101.509 0.5 101.233V99.188C0.5 98.9118 0.276142 98.688 0 98.688V94.5752C0.276142 94.5752 0.5 94.3513 0.5 94.0752V92.0301C0.5 91.7539 0.276142 91.5301 0 91.5301V87.4173C0.276142 87.4173 0.5 87.1934 0.5 86.9173V84.8722C0.5 84.596 0.276142 84.3722 0 84.3722V80.2594C0.276142 80.2594 0.5 80.0356 0.5 79.7594V77.7143C0.5 77.4382 0.276142 77.2143 0 77.2143V73.1015C0.276142 73.1015 0.5 72.8777 0.5 72.6015V70.5564C0.5 70.2803 0.276142 70.0564 0 70.0564V65.9436C0.276142 65.9436 0.5 65.7197 0.5 65.4436V63.3985C0.5 63.1224 0.276142 62.8985 0 62.8985V58.7857C0.276142 58.7857 0.5 58.5619 0.5 58.2857V56.2406C0.5 55.9645 0.276142 55.7406 0 55.7406V51.6278C0.276142 51.6278 0.5 51.404 0.5 51.1278V49.0827C0.5 48.8066 0.276142 48.5827 0 48.5827V44.4699C0.276142 44.4699 0.5 44.2461 0.5 43.9699V41.9248C0.5 41.6487 0.276142 41.4248 0 41.4248V37.312C0.276142 37.312 0.5 37.0882 0.5 36.812V34.7669C0.5 34.4908 0.276142 34.2669 0 34.2669V30.1541C0.276142 30.1541 0.5 29.9303 0.5 29.6541V27.609C0.5 27.3329 0.276142 27.109 0 27.109V22.9962C0.276142 22.9962 0.5 22.7724 0.5 22.4962V20.4511C0.5 20.175 0.276142 19.9511 0 19.9511V15.8383C0.276142 15.8383 0.5 15.6145 0.5 15.3383V13.2932C0.5 13.0171 0.276142 12.7932 0 12.7932V8.68045C0.276142 8.68045 0.5 8.45659 0.5 8.18045V6.13534C0.5 5.8592 0.276142 5.63534 0 5.63534V1.52256C0.276142 1.52256 0.5 1.2987 0.5 1.02256V0.5H1.03736C1.3135 0.5 1.53736 0.276142 1.53736 0H5.72418C5.72418 0.276142 5.94803 0.5 6.22418 0.5H8.2989C8.57504 0.5 8.7989 0.276142 8.7989 0H12.9857C12.9857 0.276142 13.2096 0.5 13.4857 0.5H15.5604C15.8366 0.5 16.0604 0.276142 16.0604 0H20.2472C20.2472 0.276142 20.4711 0.5 20.7472 0.5H22.822C23.0981 0.5 23.322 0.276142 23.322 0H27.5088C27.5088 0.276142 27.7326 0.5 28.0088 0.5H30.0835C30.3597 0.5 30.5835 0.276142 30.5835 0H34.7703C34.7703 0.276142 34.9942 0.5 35.2703 0.5H37.3451C37.6212 0.5 37.8451 0.276142 37.8451 0H42.0319C42.0319 0.276142 42.2557 0.5 42.5319 0.5H44.6066C44.8827 0.5 45.1066 0.276142 45.1066 0H49.2934C49.2934 0.276142 49.5173 0.5 49.7934 0.5H51.8681C52.1443 0.5 52.3681 0.276142 52.3681 0H56.5549C56.5549 0.276142 56.7788 0.5 57.0549 0.5H59.1297C59.4058 0.5 59.6297 0.276142 59.6297 0H63.8165C63.8165 0.276142 64.0403 0.5 64.3165 0.5H66.3912C66.6674 0.5 66.8912 0.276142 66.8912 0H71.078Z" fill="url(#paint2_linear)" stroke="url(#paint3_linear)" stroke-linecap="round" stroke-dasharray="2 5"/>
</g>
<path d="M72.6152 1.57937V5.97619C72.8914 5.97619 73.1152 6.20005 73.1152 6.47619V8.63492C73.1152 8.91106 72.8914 9.13492 72.6152 9.13492V13.5317C72.8914 13.5317 73.1152 13.7556 73.1152 14.0317V16.1905C73.1152 16.4666 72.8914 16.6905 72.6152 16.6905V21.0873C72.8914 21.0873 73.1152 21.3112 73.1152 21.5873V23.746C73.1152 24.0222 72.8914 24.246 72.6152 24.246V28.6429C72.8914 28.6429 73.1152 28.8667 73.1152 29.1429V31.3016C73.1152 31.5777 72.8914 31.8016 72.6152 31.8016V36.1984C72.8914 36.1984 73.1152 36.4223 73.1152 36.6984V38.8571C73.1152 39.1333 72.8914 39.3571 72.6152 39.3571V43.754C72.8914 43.754 73.1152 43.9778 73.1152 44.254V44.8333H73.6958C73.972 44.8333 74.1958 45.0572 74.1958 45.3333H78.5988C78.5988 45.0572 78.8226 44.8333 79.0988 44.8333H81.2599C81.5361 44.8333 81.7599 45.0572 81.7599 45.3333H86.1629C86.1629 45.0572 86.3867 44.8333 86.6629 44.8333H88.824C89.1002 44.8333 89.324 45.0572 89.324 45.3333H93.727C93.727 45.0572 93.9508 44.8333 94.227 44.8333H96.3881C96.6643 44.8333 96.8881 45.0572 96.8881 45.3333H101.291C101.291 45.0572 101.515 44.8333 101.791 44.8333H103.952C104.228 44.8333 104.452 45.0572 104.452 45.3333H108.855C108.855 45.0572 109.079 44.8333 109.355 44.8333H111.516C111.792 44.8333 112.016 45.0572 112.016 45.3333H116.419C116.419 45.0572 116.643 44.8333 116.919 44.8333H117.499L73.1152 0.499435V1.07937C73.1152 1.35551 72.8914 1.57937 72.6152 1.57937Z" stroke="url(#paint4_linear)" stroke-linecap="round" stroke-dasharray="2 5"/>
<path d="M71.078 0C71.078 0.276142 71.3019 0.5 71.578 0.5H72.4084L72.9824 1.07333C73.1778 1.26848 73.4944 1.26831 73.6895 1.07293L76.584 3.96411C76.3888 4.15948 76.389 4.47606 76.5844 4.67122L78.0252 6.11037C78.2205 6.30552 78.5371 6.30534 78.7323 6.10997L81.6267 9.00115C81.4316 9.19652 81.4317 9.5131 81.6271 9.70825L83.0679 11.1474C83.2633 11.3426 83.5798 11.3424 83.775 11.147L86.6694 14.0382C86.4743 14.2336 86.4745 14.5501 86.6698 14.7453L88.1106 16.1844C88.306 16.3796 88.6226 16.3794 88.8177 16.184L91.7122 19.0752C91.517 19.2706 91.5172 19.5872 91.7126 19.7823L93.1534 21.2215C93.3487 21.4166 93.6653 21.4165 93.8605 21.2211L96.7549 24.1123C96.5598 24.3076 96.5599 24.6242 96.7553 24.8194L98.1961 26.2585C98.3915 26.4537 98.7081 26.4535 98.9032 26.2581L101.798 29.1493C101.603 29.3447 101.603 29.6612 101.798 29.8564L103.239 31.2956C103.434 31.4907 103.751 31.4905 103.946 31.2952L106.84 34.1863C106.645 34.3817 106.645 34.6983 106.841 34.8934L108.282 36.3326C108.477 36.5277 108.794 36.5276 108.989 36.3322L111.883 39.2234C111.688 39.4187 111.688 39.7353 111.884 39.9305L113.324 41.3696C113.52 41.5648 113.836 41.5646 114.031 41.3692L116.926 44.2604C116.731 44.4558 116.731 44.7724 116.926 44.9675L117.5 45.5406V46.3297C117.5 46.6058 117.724 46.8297 118 46.8297V50.8114C117.724 50.8114 117.5 51.0352 117.5 51.3114V53.304C117.5 53.5802 117.724 53.804 118 53.804V57.7857C117.724 57.7857 117.5 58.0096 117.5 58.2857V60.2784C117.5 60.5545 117.724 60.7784 118 60.7784V64.7601C117.724 64.7601 117.5 64.9839 117.5 65.2601V67.2527C117.5 67.5289 117.724 67.7527 118 67.7527V71.7344C117.724 71.7344 117.5 71.9583 117.5 72.2344V74.2271C117.5 74.5032 117.724 74.7271 118 74.7271V78.7088C117.724 78.7088 117.5 78.9326 117.5 79.2088V81.2015C117.5 81.4776 117.724 81.7015 118 81.7015V85.6831C117.724 85.6831 117.5 85.907 117.5 86.1831V88.1758C117.5 88.452 117.724 88.6758 118 88.6758V92.6575C117.724 92.6575 117.5 92.8814 117.5 93.1575V95.1502C117.5 95.4263 117.724 95.6502 118 95.6502V99.6319C117.724 99.6319 117.5 99.8557 117.5 100.132V102.125C117.5 102.401 117.724 102.625 118 102.625V106.606C117.724 106.606 117.5 106.83 117.5 107.106V109.099C117.5 109.375 117.724 109.599 118 109.599V113.581C117.724 113.581 117.5 113.804 117.5 114.081V116.073C117.5 116.349 117.724 116.573 118 116.573V120.555C117.724 120.555 117.5 120.779 117.5 121.055V123.048C117.5 123.324 117.724 123.548 118 123.548V127.529C117.724 127.529 117.5 127.753 117.5 128.029V130.022C117.5 130.298 117.724 130.522 118 130.522V134.504C117.724 134.504 117.5 134.728 117.5 135.004V135.5H117.008C116.732 135.5 116.508 135.724 116.508 136H112.55C112.55 135.724 112.327 135.5 112.05 135.5H110.067C109.791 135.5 109.567 135.724 109.567 136H105.609C105.609 135.724 105.385 135.5 105.109 135.5H103.126C102.85 135.5 102.626 135.724 102.626 136H98.6681C98.6681 135.724 98.4442 135.5 98.1681 135.5H96.1849C95.9087 135.5 95.6849 135.724 95.6849 136H91.7269C91.7269 135.724 91.503 135.5 91.2269 135.5H89.2437C88.9676 135.5 88.7437 135.724 88.7437 136H84.7857C84.7857 135.724 84.5619 135.5 84.2857 135.5H82.3025C82.0264 135.5 81.8025 135.724 81.8025 136H77.8445C77.8445 135.724 77.6207 135.5 77.3445 135.5H75.3613C75.0852 135.5 74.8613 135.724 74.8613 136H70.9034C70.9034 135.724 70.6795 135.5 70.4034 135.5H68.4202C68.144 135.5 67.9202 135.724 67.9202 136H63.9622C63.9622 135.724 63.7383 135.5 63.4622 135.5H61.479C61.2028 135.5 60.979 135.724 60.979 136H57.021C57.021 135.724 56.7971 135.5 56.521 135.5H54.5378C54.2617 135.5 54.0378 135.724 54.0378 136H50.0798C50.0798 135.724 49.856 135.5 49.5798 135.5H47.5966C47.3205 135.5 47.0966 135.724 47.0966 136H43.1386C43.1386 135.724 42.9148 135.5 42.6386 135.5H40.6555C40.3793 135.5 40.1555 135.724 40.1555 136H36.1975C36.1975 135.724 35.9736 135.5 35.6975 135.5H33.7143C33.4381 135.5 33.2143 135.724 33.2143 136H29.2563C29.2563 135.724 29.0324 135.5 28.7563 135.5H26.7731C26.497 135.5 26.2731 135.724 26.2731 136H22.3151C22.3151 135.724 22.0913 135.5 21.8151 135.5H19.8319C19.5558 135.5 19.3319 135.724 19.3319 136H15.374C15.374 135.724 15.1501 135.5 14.874 135.5H12.8908C12.6146 135.5 12.3908 135.724 12.3908 136H8.43277C8.43277 135.724 8.20892 135.5 7.93277 135.5H5.94958C5.67344 135.5 5.44958 135.724 5.44958 136H1.4916C1.4916 135.724 1.26774 135.5 0.991597 135.5H0.5V134.977C0.5 134.701 0.276142 134.477 0 134.477V130.365C0.276142 130.365 0.5 130.141 0.5 129.865V127.82C0.5 127.543 0.276142 127.32 0 127.32V123.207C0.276142 123.207 0.5 122.983 0.5 122.707V120.662C0.5 120.386 0.276142 120.162 0 120.162V116.049C0.276142 116.049 0.5 115.825 0.5 115.549V113.504C0.5 113.228 0.276142 113.004 0 113.004V108.891C0.276142 108.891 0.5 108.667 0.5 108.391V106.346C0.5 106.07 0.276142 105.846 0 105.846V101.733C0.276142 101.733 0.5 101.509 0.5 101.233V99.188C0.5 98.9118 0.276142 98.688 0 98.688V94.5752C0.276142 94.5752 0.5 94.3513 0.5 94.0752V92.0301C0.5 91.7539 0.276142 91.5301 0 91.5301V87.4173C0.276142 87.4173 0.5 87.1934 0.5 86.9173V84.8722C0.5 84.596 0.276142 84.3722 0 84.3722V80.2594C0.276142 80.2594 0.5 80.0356 0.5 79.7594V77.7143C0.5 77.4382 0.276142 77.2143 0 77.2143V73.1015C0.276142 73.1015 0.5 72.8777 0.5 72.6015V70.5564C0.5 70.2803 0.276142 70.0564 0 70.0564V65.9436C0.276142 65.9436 0.5 65.7197 0.5 65.4436V63.3985C0.5 63.1224 0.276142 62.8985 0 62.8985V58.7857C0.276142 58.7857 0.5 58.5619 0.5 58.2857V56.2406C0.5 55.9645 0.276142 55.7406 0 55.7406V51.6278C0.276142 51.6278 0.5 51.404 0.5 51.1278V49.0827C0.5 48.8066 0.276142 48.5827 0 48.5827V44.4699C0.276142 44.4699 0.5 44.2461 0.5 43.9699V41.9248C0.5 41.6487 0.276142 41.4248 0 41.4248V37.312C0.276142 37.312 0.5 37.0882 0.5 36.812V34.7669C0.5 34.4908 0.276142 34.2669 0 34.2669V30.1541C0.276142 30.1541 0.5 29.9303 0.5 29.6541V27.609C0.5 27.3329 0.276142 27.109 0 27.109V22.9962C0.276142 22.9962 0.5 22.7724 0.5 22.4962V20.4511C0.5 20.175 0.276142 19.9511 0 19.9511V15.8383C0.276142 15.8383 0.5 15.6145 0.5 15.3383V13.2932C0.5 13.0171 0.276142 12.7932 0 12.7932V8.68045C0.276142 8.68045 0.5 8.45659 0.5 8.18045V6.13534C0.5 5.8592 0.276142 5.63534 0 5.63534V1.52256C0.276142 1.52256 0.5 1.2987 0.5 1.02256V0.5H1.03736C1.3135 0.5 1.53736 0.276142 1.53736 0H5.72418C5.72418 0.276142 5.94803 0.5 6.22418 0.5H8.2989C8.57504 0.5 8.7989 0.276142 8.7989 0H12.9857C12.9857 0.276142 13.2096 0.5 13.4857 0.5H15.5604C15.8366 0.5 16.0604 0.276142 16.0604 0H20.2472C20.2472 0.276142 20.4711 0.5 20.7472 0.5H22.822C23.0981 0.5 23.322 0.276142 23.322 0H27.5088C27.5088 0.276142 27.7326 0.5 28.0088 0.5H30.0835C30.3597 0.5 30.5835 0.276142 30.5835 0H34.7703C34.7703 0.276142 34.9942 0.5 35.2703 0.5H37.3451C37.6212 0.5 37.8451 0.276142 37.8451 0H42.0319C42.0319 0.276142 42.2557 0.5 42.5319 0.5H44.6066C44.8827 0.5 45.1066 0.276142 45.1066 0H49.2934C49.2934 0.276142 49.5173 0.5 49.7934 0.5H51.8681C52.1443 0.5 52.3681 0.276142 52.3681 0H56.5549C56.5549 0.276142 56.7788 0.5 57.0549 0.5H59.1297C59.4058 0.5 59.6297 0.276142 59.6297 0H63.8165C63.8165 0.276142 64.0403 0.5 64.3165 0.5H66.3912C66.6674 0.5 66.8912 0.276142 66.8912 0H71.078Z" stroke="url(#paint5_linear)" stroke-linecap="round" stroke-dasharray="2 5"/>
<defs>
<linearGradient id="paint0_linear" x1="72.6152" y1="45.3333" x2="126.472" y2="30.2492" gradientUnits="userSpaceOnUse">
<stop stop-color="#006CAC"/>
<stop offset="1" stop-color="#017D86"/>
</linearGradient>
<linearGradient id="paint1_linear" x1="72.6152" y1="45.3333" x2="126.472" y2="30.2492" gradientUnits="userSpaceOnUse">
<stop stop-color="#006CAC"/>
<stop offset="1" stop-color="#017D86"/>
</linearGradient>
<linearGradient id="paint2_linear" x1="0" y1="136" x2="142.609" y2="101.384" gradientUnits="userSpaceOnUse">
<stop stop-color="#006CAC"/>
<stop offset="1" stop-color="#017D86"/>
</linearGradient>
<linearGradient id="paint3_linear" x1="0" y1="136" x2="142.609" y2="101.384" gradientUnits="userSpaceOnUse">
<stop stop-color="#006CAC"/>
<stop offset="1" stop-color="#017D86"/>
</linearGradient>
<linearGradient id="paint4_linear" x1="72.6152" y1="45.3333" x2="126.472" y2="30.2492" gradientUnits="userSpaceOnUse">
<stop stop-color="#006CAC"/>
<stop offset="1" stop-color="#017D86"/>
</linearGradient>
<linearGradient id="paint5_linear" x1="0" y1="136" x2="142.609" y2="101.384" gradientUnits="userSpaceOnUse">
<stop stop-color="#006CAC"/>
<stop offset="1" stop-color="#017D86"/>
</linearGradient>
</defs>
</svg>
