<svg width="56" height="56" viewBox="0 0 56 56" fill="none" xmlns="http://www.w3.org/2000/svg">
<rect width="56" height="56" fill="black" fill-opacity="0"/>
<path d="M3.73333 28C3.73333 14.6197 14.6197 3.73333 28 3.73333C33.9248 3.73333 39.5649 5.866 43.9936 9.75333L37.6068 16.1401C37.3539 16.3931 37.268 16.7683 37.3847 17.1061C37.5023 17.444 37.8019 17.6848 38.1575 17.7268L54.0241 19.5935C54.0605 19.5981 54.0969 19.6 54.1333 19.6C54.3797 19.6 54.6177 19.5029 54.7932 19.3265C54.9948 19.1249 55.0937 18.8412 55.0601 18.5575L53.1935 2.6908C53.1515 2.3352 52.9107 2.0356 52.5728 1.918C52.2349 1.80133 51.8588 1.88627 51.6068 2.14013L46.6359 7.11107C41.4979 2.5228 34.9179 0 28 0C12.5608 0 0 12.5608 0 28C0 29.0304 0.836267 29.8667 1.86667 29.8667C2.89707 29.8667 3.73333 29.0304 3.73333 28Z" fill="url(#paint0_linear)"/>
<path d="M54.133 26.1328C53.1026 26.1328 52.2664 26.9691 52.2664 27.9995C52.2664 41.3807 41.38 52.2661 27.9997 52.2661C22.0749 52.2661 16.4348 50.1335 12.007 46.2452L18.3929 39.8593C18.6458 39.6064 18.7317 39.2312 18.615 38.8933C18.4974 38.5555 18.1978 38.3147 17.8422 38.2727L1.97556 36.406C1.68996 36.3724 1.40809 36.4713 1.20649 36.6729C1.00489 36.8755 0.905956 37.1583 0.939556 37.442L2.80622 53.3087C2.84822 53.6633 3.08902 53.9639 3.42689 54.0805C3.52676 54.1151 3.63036 54.1328 3.73302 54.1328C3.97662 54.1328 4.21556 54.0367 4.39289 53.8593L9.36382 48.8884C14.5018 53.4767 21.0809 55.9995 27.9997 55.9995C43.4389 55.9995 55.9997 43.4387 55.9997 27.9995C55.9997 26.9691 55.1634 26.1328 54.133 26.1328Z" fill="url(#paint1_linear)"/>
<defs>
<linearGradient id="paint0_linear" x1="0" y1="29.8667" x2="55.6625" y2="1.15533" gradientUnits="userSpaceOnUse">
<stop stop-color="#006CAC"/>
<stop offset="1" stop-color="#017D86"/>
</linearGradient>
<linearGradient id="paint1_linear" x1="0.933105" y1="55.9995" x2="56.5956" y2="27.2881" gradientUnits="userSpaceOnUse">
<stop stop-color="#006CAC"/>
<stop offset="1" stop-color="#017D86"/>
</linearGradient>
</defs>
</svg>
